<svg width="180" height="180" viewBox="0 0 180 180" fill="none" xmlns="http://www.w3.org/2000/svg">
<g filter="url(#filter0_d_2_7294)">
<path fill-rule="evenodd" clip-rule="evenodd" d="M90.0601 171.88C137.523 171.88 176 133.403 176 85.94C176 38.4766 137.523 0 90.0601 0C42.5967 0 4.12012 38.4766 4.12012 85.94C4.12012 133.403 42.5967 171.88 90.0601 171.88ZM44.1697 41.3102C44.1697 38.8881 46.1332 36.9245 48.5553 36.9245H68.1445C70.5666 36.9245 72.5301 38.8881 72.5301 41.3102C72.5301 43.7323 70.5666 45.6958 68.1445 45.6958H52.941V52.6397C52.941 55.0618 50.9775 57.0254 48.5553 57.0254C46.1332 57.0254 44.1697 55.0618 44.1697 52.6397V41.3102ZM48.5553 70.9132C50.9775 70.9132 52.941 72.8767 52.941 75.2988V97.958C52.941 100.38 50.9775 102.344 48.5553 102.344C46.1332 102.344 44.1697 100.38 44.1697 97.958V75.2988C44.1697 72.8767 46.1332 70.9132 48.5553 70.9132ZM48.5553 116.231C50.9775 116.231 52.941 118.195 52.941 120.617V127.561H68.1445C70.5666 127.561 72.5301 129.525 72.5301 131.947C72.5301 134.369 70.5666 136.332 68.1445 136.332H48.5553C46.1332 136.332 44.1697 134.369 44.1697 131.947V120.617C44.1697 118.195 46.1332 116.231 48.5553 116.231ZM126.912 116.231C129.334 116.231 131.298 118.195 131.298 120.617V131.947C131.298 134.369 129.334 136.332 126.912 136.332H107.323C104.901 136.332 102.937 134.369 102.937 131.947C102.937 129.525 104.901 127.561 107.323 127.561H122.526V120.617C122.526 118.195 124.49 116.231 126.912 116.231ZM78.9588 27.234C81.8877 24.3051 86.6364 24.3051 89.5654 27.234L92.9041 30.5728L96.1042 27.3727C99.0331 24.4438 103.782 24.4438 106.711 27.3727C109.64 30.3017 109.64 35.0504 106.711 37.9793L103.511 41.1794L106.748 44.4167C109.677 47.3456 109.677 52.0943 106.748 55.0233C103.819 57.9522 99.0703 57.9522 96.1414 55.0233L92.9041 51.786L89.5282 55.1619C86.5993 58.0909 81.8505 58.0909 78.9216 55.1619C75.9927 52.233 75.9927 47.4843 78.9216 44.5553L82.2975 41.1794L78.9588 37.8406C76.0298 34.9117 76.0298 30.163 78.9588 27.234ZM130.675 107.382C141.464 99.7054 149.717 85.3656 149.717 74.0544C149.717 61.4594 139.507 51.2491 126.912 51.2491C114.317 51.2491 104.107 61.4594 104.107 74.0544C104.107 85.3047 112.505 100.484 123.049 107.556C125.372 109.114 128.396 109.004 130.675 107.382ZM126.912 87.5034C134.34 87.5034 140.361 81.4819 140.361 74.0541C140.361 66.6263 134.34 60.6048 126.912 60.6048C119.484 60.6048 113.463 66.6263 113.463 74.0541C113.463 81.4819 119.484 87.5034 126.912 87.5034ZM126.912 76.394C128.204 76.394 129.251 75.3467 129.251 74.0549C129.251 72.7632 128.204 71.7159 126.912 71.7159C125.62 71.7159 124.573 72.7632 124.573 74.0549C124.573 75.3467 125.62 76.394 126.912 76.394Z" fill="#009999"/>
</g>
<defs>
<filter id="filter0_d_2_7294" x="0.120117" y="0" width="179.88" height="179.88" filterUnits="userSpaceOnUse" color-interpolation-filters="sRGB">
<feFlood flood-opacity="0" result="BackgroundImageFix"/>
<feColorMatrix in="SourceAlpha" type="matrix" values="0 0 0 0 0 0 0 0 0 0 0 0 0 0 0 0 0 0 127 0" result="hardAlpha"/>
<feOffset dy="4"/>
<feGaussianBlur stdDeviation="2"/>
<feComposite in2="hardAlpha" operator="out"/>
<feColorMatrix type="matrix" values="0 0 0 0 0 0 0 0 0 0 0 0 0 0 0 0 0 0 0.25 0"/>
<feBlend mode="normal" in2="BackgroundImageFix" result="effect1_dropShadow_2_7294"/>
<feBlend mode="normal" in="SourceGraphic" in2="effect1_dropShadow_2_7294" result="shape"/>
</filter>
</defs>
</svg>
