<svg width="180" height="180" viewBox="0 0 180 180" fill="none" xmlns="http://www.w3.org/2000/svg">
<g filter="url(#filter0_d_2_7244)">
<path fill-rule="evenodd" clip-rule="evenodd" d="M175.88 85.94C175.88 133.403 137.403 171.88 89.94 171.88C42.4766 171.88 4 133.403 4 85.94C4 38.4766 42.4766 0 89.94 0C137.403 0 175.88 38.4766 175.88 85.94ZM26.5789 90.8096V100.894C26.5789 103.103 28.3698 104.894 30.5789 104.894H37.6474C39.426 104.894 40.9754 106.074 41.5742 107.749C42.1133 109.257 42.7224 110.732 43.3975 112.169C44.1514 113.775 43.8881 115.698 42.634 116.952L37.4566 122.129C35.8945 123.692 35.8945 126.224 37.4566 127.786L51.7186 142.048C53.2807 143.61 55.8134 143.61 57.3755 142.048L62.4601 136.964C63.7222 135.702 65.6609 135.444 67.2709 136.214C68.8104 136.951 70.3932 137.611 72.0145 138.191C73.6892 138.79 74.8696 140.339 74.8696 142.118V149.186C74.8696 151.395 76.6605 153.186 78.8696 153.186H99.0391C101.248 153.186 103.039 151.395 103.039 149.186V142.118C103.039 140.339 104.22 138.79 105.894 138.191C107.401 137.652 108.875 137.043 110.312 136.368C111.917 135.614 113.841 135.878 115.095 137.132L120.011 142.048C121.573 143.61 124.106 143.61 125.668 142.048L139.93 127.786C141.492 126.224 141.492 123.691 139.93 122.129L135.106 117.306C133.844 116.044 133.586 114.105 134.357 112.495C135.094 110.955 135.755 109.371 136.334 107.749C136.933 106.074 138.483 104.894 140.261 104.894H147.33C149.539 104.894 151.33 103.103 151.33 100.894V90.8096L124.357 90.8096C124.357 110.362 108.507 126.212 88.9547 126.212C69.4025 126.212 53.5524 110.362 53.5524 90.8096H26.5789ZM94.7578 20.0233C100.134 20.4594 105.306 21.6191 110.176 23.4047V58.2309C110.176 60.44 111.967 62.2309 114.176 62.2309H117.74C119.949 62.2309 121.74 60.44 121.74 58.2309V29.1644C137.215 39.1374 147.706 56.1769 148.652 75.7214H152.576C155.77 75.7214 158.358 78.31 158.358 81.5033C158.358 84.6965 155.77 87.2851 152.576 87.2851H27.3036C24.1104 87.2851 21.5218 84.6965 21.5218 81.5033C21.5218 78.31 24.1104 75.7214 27.3036 75.7214H31.2281C32.1343 56.9997 41.7989 40.5766 56.2128 30.4613V58.2309C56.2128 60.44 58.0036 62.2309 60.2128 62.2309H63.7764C65.9855 62.2309 67.7764 60.44 67.7764 58.2309V24.1505C72.6263 22.1748 77.7993 20.828 83.1942 20.2116V58.2309C83.1942 60.44 84.985 62.2309 87.1942 62.2309H90.7578C92.967 62.2309 94.7578 60.44 94.7578 58.2309V20.0233Z" fill="#009999"/>
</g>
<defs>
<filter id="filter0_d_2_7244" x="0" y="0" width="179.88" height="179.88" filterUnits="userSpaceOnUse" color-interpolation-filters="sRGB">
<feFlood flood-opacity="0" result="BackgroundImageFix"/>
<feColorMatrix in="SourceAlpha" type="matrix" values="0 0 0 0 0 0 0 0 0 0 0 0 0 0 0 0 0 0 127 0" result="hardAlpha"/>
<feOffset dy="4"/>
<feGaussianBlur stdDeviation="2"/>
<feComposite in2="hardAlpha" operator="out"/>
<feColorMatrix type="matrix" values="0 0 0 0 0 0 0 0 0 0 0 0 0 0 0 0 0 0 0.25 0"/>
<feBlend mode="normal" in2="BackgroundImageFix" result="effect1_dropShadow_2_7244"/>
<feBlend mode="normal" in="SourceGraphic" in2="effect1_dropShadow_2_7244" result="shape"/>
</filter>
</defs>
</svg>
