<svg width="180" height="180" viewBox="0 0 180 180" fill="none" xmlns="http://www.w3.org/2000/svg">
<g filter="url(#filter0_d_2_7269)">
<path fill-rule="evenodd" clip-rule="evenodd" d="M90.0601 171.88C137.523 171.88 176 133.403 176 85.94C176 38.4766 137.523 0 90.0601 0C42.5967 0 4.12012 38.4766 4.12012 85.94C4.12012 133.403 42.5967 171.88 90.0601 171.88ZM79.4225 21.1647C77.2134 21.1647 75.4225 22.9556 75.4225 25.1647V32.6802C75.4225 34.4588 74.2424 36.0086 72.5666 36.6044C70.832 37.221 69.14 37.9273 67.496 38.7176C65.8873 39.491 63.9484 39.2326 62.6863 37.9705L57.2836 32.5677C55.7215 31.0056 53.1888 31.0056 51.6267 32.5677L36.7333 47.4611C35.1712 49.0232 35.1712 51.5559 36.7333 53.118L42.232 58.6166C43.486 59.8707 43.7499 61.7941 42.9931 63.398C42.2675 64.9359 41.6152 66.5151 41.0407 68.1312C40.445 69.8071 38.8952 70.9873 37.1166 70.9873H29.6015C27.3923 70.9873 25.6015 72.7781 25.6015 74.9873V96.0497C25.6015 98.2588 27.3923 100.05 29.6015 100.05H37.1175C38.8961 100.05 40.4458 101.23 41.0416 102.906C41.6159 104.521 42.2679 106.099 42.9932 107.637C43.75 109.24 43.4862 111.164 42.2321 112.418L36.7334 117.917C35.1713 119.479 35.1713 122.011 36.7334 123.574L51.6268 138.467C53.1889 140.029 55.7216 140.029 57.2837 138.467L62.6867 133.064C63.9488 131.802 65.8876 131.543 67.4963 132.317C69.1402 133.107 70.8321 133.813 72.5666 134.43C74.2424 135.026 75.4225 136.575 75.4225 138.354V145.869C75.4225 148.078 77.2134 149.869 79.4225 149.869H100.485C102.694 149.869 104.485 148.078 104.485 145.869V138.354C104.485 136.576 105.665 135.026 107.341 134.43C108.957 133.856 110.536 133.203 112.074 132.478C113.678 131.721 115.602 131.985 116.856 133.239L122.085 138.468C123.647 140.03 126.18 140.03 127.742 138.468L142.635 123.575C144.197 122.013 144.197 119.48 142.635 117.918L137.501 112.784C136.239 111.522 135.981 109.583 136.754 107.974C137.544 106.331 138.25 104.639 138.867 102.906C139.462 101.23 141.012 100.05 142.791 100.05H150.306C152.516 100.05 154.306 98.2588 154.306 96.0497V74.9873C154.306 72.7781 152.516 70.9873 150.306 70.9873H142.792C141.013 70.9873 139.463 69.8071 138.867 68.1312C138.251 66.3964 137.544 64.7042 136.754 63.06C135.981 61.4513 136.239 59.5125 137.501 58.2504L142.635 53.1168C144.197 51.5547 144.197 49.0221 142.635 47.46L127.741 32.5666C126.179 31.0045 123.647 31.0045 122.085 32.5666L116.856 37.7955C115.602 39.0496 113.678 39.3134 112.074 38.5566C110.536 37.831 108.957 37.1786 107.341 36.6041C105.665 36.0084 104.485 34.4586 104.485 32.68V25.1647C104.485 22.9556 102.694 21.1647 100.485 21.1647H79.4225ZM89.8081 76.1756C97.8334 76.1756 104.339 65.3032 104.339 57.3542C104.339 49.4053 97.8334 42.9614 89.8081 42.9614C81.7827 42.9614 75.2768 49.4053 75.2768 57.3542C75.2768 65.3032 81.7827 76.1756 89.8081 76.1756ZM81.6081 79.2906C81.9875 79.2906 82.3342 79.5065 82.5059 79.8449C84.3242 83.4294 85.9806 85.9762 89.0474 89.7742C89.4404 90.261 90.1814 90.2645 90.579 89.7814C93.6497 86.0512 95.343 83.5057 97.1352 79.8578C97.3049 79.5125 97.6552 79.2906 98.04 79.2906H99.9468C111.545 79.2906 120.947 88.6927 120.947 100.291V112.657C120.947 114.866 119.156 116.657 116.947 116.657H62.6702C60.4611 116.657 58.6702 114.866 58.6702 112.657V100.291C58.6702 88.6927 68.0722 79.2906 79.6702 79.2906H81.6081Z" fill="#009999"/>
</g>
<defs>
<filter id="filter0_d_2_7269" x="0.120117" y="0" width="179.88" height="179.88" filterUnits="userSpaceOnUse" color-interpolation-filters="sRGB">
<feFlood flood-opacity="0" result="BackgroundImageFix"/>
<feColorMatrix in="SourceAlpha" type="matrix" values="0 0 0 0 0 0 0 0 0 0 0 0 0 0 0 0 0 0 127 0" result="hardAlpha"/>
<feOffset dy="4"/>
<feGaussianBlur stdDeviation="2"/>
<feComposite in2="hardAlpha" operator="out"/>
<feColorMatrix type="matrix" values="0 0 0 0 0 0 0 0 0 0 0 0 0 0 0 0 0 0 0.25 0"/>
<feBlend mode="normal" in2="BackgroundImageFix" result="effect1_dropShadow_2_7269"/>
<feBlend mode="normal" in="SourceGraphic" in2="effect1_dropShadow_2_7269" result="shape"/>
</filter>
</defs>
</svg>
