<svg width="180" height="180" viewBox="0 0 180 180" fill="none" xmlns="http://www.w3.org/2000/svg">
<g filter="url(#filter0_d_2_4175)">
<path fill-rule="evenodd" clip-rule="evenodd" d="M89.94 171.88C137.403 171.88 175.88 133.403 175.88 85.94C175.88 38.4766 137.403 0 89.94 0C42.4766 0 4 38.4766 4 85.94C4 133.403 42.4766 171.88 89.94 171.88ZM54.7765 73.0535C53.6719 73.0535 52.7765 73.9489 52.7765 75.0535V88.6627C52.7765 89.7672 53.6719 90.6627 54.7765 90.6627H68.3857C69.4903 90.6627 70.3857 89.7672 70.3857 88.6627V75.0535C70.3857 73.9489 69.4903 73.0535 68.3857 73.0535H54.7765ZM52.7762 101.903C52.7762 100.799 53.6717 99.9033 54.7762 99.9033H68.3854C69.49 99.9033 70.3854 100.799 70.3854 101.903V115.513C70.3854 116.617 69.49 117.513 68.3854 117.513H54.7762C53.6717 117.513 52.7762 116.617 52.7762 115.513V101.903ZM83.6642 73.0536C82.5596 73.0536 81.6642 73.949 81.6642 75.0536V88.6628C81.6642 89.7674 82.5596 90.6628 83.6642 90.6628H97.2734C98.3779 90.6628 99.2734 89.7674 99.2734 88.6628V75.0536C99.2734 73.949 98.3779 73.0536 97.2734 73.0536H83.6642ZM81.6642 101.903C81.6642 100.799 82.5596 99.9033 83.6642 99.9033H97.2734C98.3779 99.9033 99.2734 100.799 99.2734 101.903V115.513C99.2734 116.617 98.3779 117.513 97.2734 117.513H83.6642C82.5596 117.513 81.6642 116.617 81.6642 115.513V101.903ZM111.825 99.9033C110.72 99.9033 109.825 100.799 109.825 101.903V115.513C109.825 116.617 110.72 117.513 111.825 117.513H125.434C126.539 117.513 127.434 116.617 127.434 115.513V101.903C127.434 100.799 126.539 99.9033 125.434 99.9033H111.825ZM109.97 75.0536C109.97 73.949 110.865 73.0536 111.97 73.0536H125.579C126.684 73.0536 127.579 73.949 127.579 75.0536V88.6628C127.579 89.7674 126.684 90.6628 125.579 90.6628H111.97C110.865 90.6628 109.97 89.7674 109.97 88.6628V75.0536ZM58.0156 26.7004C55.4034 26.7004 53.2858 28.818 53.2858 31.4302V47.5115C53.2858 50.1237 55.4034 52.2413 58.0156 52.2413C60.6278 52.2413 62.7454 50.1237 62.7454 47.5115V31.4302C62.7454 28.818 60.6278 26.7004 58.0156 26.7004ZM117.611 31.4302C117.611 28.818 119.729 26.7004 122.341 26.7004C124.953 26.7004 127.071 28.818 127.071 31.4302V47.5115C127.071 50.1237 124.953 52.2413 122.341 52.2413C119.729 52.2413 117.611 50.1237 117.611 47.5115V31.4302ZM114.773 40.889H65.5826V48.4564C65.5826 52.6359 62.1944 56.0241 58.0149 56.0241C53.8354 56.0241 50.4472 52.6359 50.4472 48.4564V40.889H45.42C38.7926 40.889 33.42 46.2616 33.42 52.889V123.485C33.42 130.113 38.7926 135.485 45.42 135.485H134.935C141.563 135.485 146.935 130.113 146.935 123.485V52.889C146.935 46.2616 141.563 40.889 134.935 40.889H129.908V48.4564C129.908 52.6359 126.52 56.0241 122.34 56.0241C118.161 56.0241 114.773 52.6359 114.773 48.4564V40.889ZM42.8798 65.5921C42.8798 64.4875 43.7753 63.5921 44.8798 63.5921H135.476C136.581 63.5921 137.476 64.4875 137.476 65.5921V124.026C137.476 125.13 136.581 126.026 135.476 126.026H44.8798C43.7753 126.026 42.8798 125.13 42.8798 124.026V65.5921Z" fill="#009999"/>
</g>
<defs>
<filter id="filter0_d_2_4175" x="0" y="0" width="179.88" height="179.88" filterUnits="userSpaceOnUse" color-interpolation-filters="sRGB">
<feFlood flood-opacity="0" result="BackgroundImageFix"/>
<feColorMatrix in="SourceAlpha" type="matrix" values="0 0 0 0 0 0 0 0 0 0 0 0 0 0 0 0 0 0 127 0" result="hardAlpha"/>
<feOffset dy="4"/>
<feGaussianBlur stdDeviation="2"/>
<feComposite in2="hardAlpha" operator="out"/>
<feColorMatrix type="matrix" values="0 0 0 0 0 0 0 0 0 0 0 0 0 0 0 0 0 0 0.25 0"/>
<feBlend mode="normal" in2="BackgroundImageFix" result="effect1_dropShadow_2_4175"/>
<feBlend mode="normal" in="SourceGraphic" in2="effect1_dropShadow_2_4175" result="shape"/>
</filter>
</defs>
</svg>
