<svg width="180" height="180" viewBox="0 0 180 180" fill="none" xmlns="http://www.w3.org/2000/svg">
<g filter="url(#filter0_d_2_7310)">
<path fill-rule="evenodd" clip-rule="evenodd" d="M175.88 85.94C175.88 133.403 137.403 171.88 89.94 171.88C42.4766 171.88 4 133.403 4 85.94C4 38.4766 42.4766 0 89.94 0C137.403 0 175.88 38.4766 175.88 85.94ZM74.1378 57.7716V72.8874H67.9542C65.2981 72.8874 63.1448 75.0407 63.1448 77.6968C63.1448 80.3529 65.2981 82.5062 67.9542 82.5062H68.643V102.685C68.643 109.624 74.1659 115.274 81.0561 115.478C81.3301 117.409 82.7509 118.971 84.6068 119.452V143.449C55.214 140.761 32.188 116.037 32.188 85.94C32.188 54.0444 58.0444 28.188 89.94 28.188C121.836 28.188 147.692 54.0444 147.692 85.94C147.692 88.8854 150.08 91.2731 153.025 91.2731C155.97 91.2731 158.358 88.8854 158.358 85.94C158.358 48.1536 127.726 17.5217 89.94 17.5217C52.1536 17.5217 21.5217 48.1536 21.5217 85.94C21.5217 121.782 49.0781 151.182 84.1641 154.118C90.5015 154.648 95.2731 149.457 95.2731 143.692V119.452C97.1289 118.971 98.5495 117.409 98.8235 115.479C105.715 115.276 111.24 109.626 111.24 102.685V82.5062H111.926C114.582 82.5062 116.735 80.3529 116.735 77.6968C116.735 75.0407 114.582 72.8874 111.926 72.8874H105.743V57.7717C105.743 54.7361 103.282 52.2753 100.247 52.2753C97.2111 52.2753 94.7502 54.7361 94.7502 57.7717V72.8874H85.1306V57.7716C85.1306 54.736 82.6698 52.2751 79.6342 52.2751C76.5986 52.2751 74.1378 54.736 74.1378 57.7716Z" fill="#009999"/>
</g>
<defs>
<filter id="filter0_d_2_7310" x="0" y="0" width="179.88" height="179.88" filterUnits="userSpaceOnUse" color-interpolation-filters="sRGB">
<feFlood flood-opacity="0" result="BackgroundImageFix"/>
<feColorMatrix in="SourceAlpha" type="matrix" values="0 0 0 0 0 0 0 0 0 0 0 0 0 0 0 0 0 0 127 0" result="hardAlpha"/>
<feOffset dy="4"/>
<feGaussianBlur stdDeviation="2"/>
<feComposite in2="hardAlpha" operator="out"/>
<feColorMatrix type="matrix" values="0 0 0 0 0 0 0 0 0 0 0 0 0 0 0 0 0 0 0.25 0"/>
<feBlend mode="normal" in2="BackgroundImageFix" result="effect1_dropShadow_2_7310"/>
<feBlend mode="normal" in="SourceGraphic" in2="effect1_dropShadow_2_7310" result="shape"/>
</filter>
</defs>
</svg>
